<svg width="1386" height="1386" viewBox="0 0 1386 1386" fill="none" xmlns="http://www.w3.org/2000/svg">
<path d="M965 349C965 499.221 843.221 621 693 621C542.779 621 421 499.221 421 349C421 198.779 542.779 77 693 77C843.221 77 965 198.779 965 349Z" fill="url(#paint0_linear_426_38)"/>
<path d="M693 621.5C1198 621.5 1153.73 1133 1153.73 1133H232.274C232.274 1133 188 621.5 693 621.5Z" fill="url(#paint1_linear_426_38)"/>
<path fill-rule="evenodd" clip-rule="evenodd" d="M693 1386C1086.78 1386 1386 1086.78 1386 693C1386 299.221 1086.78 0 693 0C299.221 0 0 299.221 0 693C0 1086.78 299.221 1386 693 1386ZM693 1348C1054.75 1348 1348 1054.75 1348 693C1348 331.253 1054.75 38 693 38C331.253 38 38 331.253 38 693C38 1054.75 331.253 1348 693 1348Z" fill="#48454D"/>
<path fill-rule="evenodd" clip-rule="evenodd" d="M692.711 619C842.932 619 964.711 497.221 964.711 347C964.711 196.779 842.932 75 692.711 75C542.489 75 420.711 196.779 420.711 347C420.711 497.221 542.489 619 692.711 619ZM1153.44 1131C1153.44 1131 1197.71 619.5 692.711 619.5C187.711 619.5 231.985 1131 231.985 1131H1153.44ZM692.711 601.5C832.615 601.5 946.03 488.024 946.03 348.045C946.03 208.066 832.615 94.5908 692.711 94.5908C552.807 94.5908 439.392 208.066 439.392 348.045C439.392 488.024 552.807 601.5 692.711 601.5ZM1121.79 1115C1121.79 1115 1163.03 638.375 692.711 638.375C222.395 638.375 263.629 1115 263.629 1115H1121.79Z" fill="#48454D"/>
<defs>
<linearGradient id="paint0_linear_426_38" x1="1203.32" y1="-28.2188" x2="115.166" y2="1667.43" gradientUnits="userSpaceOnUse">
<stop stop-color="#D183C7"/>
<stop offset="0.83" stop-color="#B6DFDD"/>
</linearGradient>
<linearGradient id="paint1_linear_426_38" x1="1203.32" y1="-28.2188" x2="115.166" y2="1667.43" gradientUnits="userSpaceOnUse">
<stop stop-color="#D183C7"/>
<stop offset="0.83" stop-color="#B6DFDD"/>
</linearGradient>
</defs>
</svg>
