<svg width="1326" height="1906" viewBox="0 0 1326 1906" fill="none" xmlns="http://www.w3.org/2000/svg">
<path d="M263 20L663 629L1063 20C1063 20 1313 248.5 1313 629.5C1313 1010.5 663 1884.5 663 1884.5C663 1884.5 13 1010.5 13 629.5C13 248.5 263 20 263 20Z" fill="url(#paint0_linear_404_47)"/>
<path d="M256 38.9995C7.50012 199.5 -48.0001 847.501 408 965.5C864 1083.5 889 1638.5 656.5 1884M1059.5 28.0002C1059.5 769 796.5 1264 796.5 1619M796.5 1619C934 1319.5 1151.5 1081.5 1301.5 486.5M796.5 1619C845.5 1352.5 1187 741 1235.5 271.5M663 629L263 20C263 20 13 248.5 13 629.5C13 1010.5 663 1884.5 663 1884.5C663 1884.5 1313 1010.5 1313 629.5C1313 248.5 1063 20 1063 20L663 629Z" stroke="black" stroke-width="25"/>
<defs>
<linearGradient id="paint0_linear_404_47" x1="1256.5" y1="-46" x2="263.5" y2="1563.5" gradientUnits="userSpaceOnUse">
<stop offset="0.3" stop-color="#B6DFDD"/>
<stop offset="0.95" stop-color="#D183C7"/>
</linearGradient>
</defs>
</svg>
