<svg width="3253" height="996" viewBox="0 0 3253 996" fill="none" xmlns="http://www.w3.org/2000/svg">
<path d="M9.2002 699V279H100.4L291.8 516H234.2L425.6 279H516.8V699H417.8V562.2C417.8 529 418.6 497.8 420.2 468.6C421.8 439.4 425 409.6 429.8 379.2L439.4 412.8L282.8 597H243.2L84.8002 411.6L96.2002 379.2C101 409.6 104.2 439.4 105.8 468.6C107.4 497.8 108.2 529 108.2 562.2V699H9.2002Z" fill="black"/>
<path d="M941.258 702.6C896.458 702.6 857.458 693.8 824.258 676.2C791.058 658.6 765.258 634.4 746.858 603.6C728.458 572.8 719.258 537.6 719.258 498V279H822.458V495.6C822.458 518.4 827.458 538.6 837.458 556.2C847.858 573.8 862.058 587.6 880.058 597.6C898.058 607.2 918.458 612 941.258 612C964.858 612 985.658 607.2 1003.66 597.6C1022.06 587.6 1036.46 573.8 1046.86 556.2C1057.66 538.6 1063.06 518.4 1063.06 495.6V279H1162.66V498C1162.66 537.6 1153.46 572.8 1135.06 603.6C1116.66 634.4 1090.86 658.6 1057.66 676.2C1024.46 693.8 985.658 702.6 941.258 702.6Z" fill="black"/>
<path d="M1548.2 705C1514.2 705 1483 702 1454.6 696C1426.2 689.6 1400.4 681.2 1377.2 670.8C1354.4 660 1333.6 647.8 1314.8 634.2L1361.6 552.6C1394.4 575.8 1427.4 592.8 1460.6 603.6C1493.8 614 1525.6 619.2 1556 619.2C1569.2 619.2 1583 618 1597.4 615.6C1611.8 612.8 1623.8 608.2 1633.4 601.8C1643.4 595 1648.4 585.8 1648.4 574.2C1648.4 567.4 1646 561.8 1641.2 557.4C1636.8 552.6 1630.6 548.8 1622.6 546C1614.6 543.2 1605.2 541 1594.4 539.4C1584 537.4 1572.6 536 1560.2 535.2C1548.2 534 1536 532.8 1523.6 531.6C1495.6 528.8 1470.2 524.2 1447.4 517.8C1424.6 511.4 1405 503.2 1388.6 493.2C1372.6 482.8 1360.2 470.2 1351.4 455.4C1342.6 440.6 1338.2 423.6 1338.2 404.4C1338.2 382.8 1343.4 363.6 1353.8 346.8C1364.6 330 1379.6 316 1398.8 304.8C1418 293.2 1440 284.4 1464.8 278.4C1490 272.4 1517 269.4 1545.8 269.4C1575.8 269.4 1602.8 272.2 1626.8 277.8C1651.2 283 1672.6 290.2 1691 299.4C1709.8 308.6 1725.4 318.6 1737.8 329.4L1688.6 400.2C1676.2 391 1661.8 383.2 1645.4 376.8C1629.4 370 1612.4 364.8 1594.4 361.2C1576.8 357.6 1559.2 355.8 1541.6 355.8C1523.6 355.8 1507.4 357.4 1493 360.6C1479 363.4 1467.8 367.8 1459.4 373.8C1451.4 379.4 1447.4 386.8 1447.4 396C1447.4 404.4 1450.8 411.4 1457.6 417C1464.8 422.2 1474 426.4 1485.2 429.6C1496.4 432.4 1508.8 434.6 1522.4 436.2C1536 437.8 1549.2 439.4 1562 441C1586 443.4 1609.6 446.6 1632.8 450.6C1656 454.2 1676.8 460.2 1695.2 468.6C1714 476.6 1729 488.2 1740.2 503.4C1751.4 518.2 1757 538.4 1757 564C1757 593.6 1748 619 1730 640.2C1712 661 1687.2 677 1655.6 688.2C1624.4 699.4 1588.6 705 1548.2 705Z" fill="black"/>
<path d="M1928.15 699V279H2304.95V366H2027.15V612H2310.95V699H1928.15ZM1982.15 526.8V444H2277.95V526.8H1982.15Z" fill="black"/>
<path d="M2701.23 14L2908 329.524L3114.77 14C3114.77 14 3244 132.386 3244 329.783C3244 527.179 2908 980 2908 980C2908 980 2572 527.179 2572 329.783C2572 132.386 2701.23 14 2701.23 14Z" fill="url(#paint0_linear_404_51)"/>
<path d="M2697.61 23.8437C2569.16 106.999 2540.47 442.729 2776.18 503.865C3011.9 565.001 3024.82 852.547 2904.64 979.741M3112.96 18.1449C3112.96 402.058 2977.01 658.518 2977.01 842.444M2977.01 842.444C3048.09 687.273 3160.52 563.965 3238.06 255.694M2977.01 842.444C3002.34 704.37 3178.87 387.551 3203.94 144.303M9.2002 699V279H100.4L291.8 516H234.2L425.6 279H516.8V699H417.8V562.2C417.8 529 418.6 497.8 420.2 468.6C421.8 439.4 425 409.6 429.8 379.2L439.4 412.8L282.8 597H243.2L84.8002 411.6L96.2002 379.2C101 409.6 104.2 439.4 105.8 468.6C107.4 497.8 108.2 529 108.2 562.2V699H9.2002ZM941.258 702.6C896.458 702.6 857.458 693.8 824.258 676.2C791.058 658.6 765.258 634.4 746.858 603.6C728.458 572.8 719.258 537.6 719.258 498V279H822.458V495.6C822.458 518.4 827.458 538.6 837.458 556.2C847.858 573.8 862.058 587.6 880.058 597.6C898.058 607.2 918.458 612 941.258 612C964.858 612 985.658 607.2 1003.66 597.6C1022.06 587.6 1036.46 573.8 1046.86 556.2C1057.66 538.6 1063.06 518.4 1063.06 495.6V279H1162.66V498C1162.66 537.6 1153.46 572.8 1135.06 603.6C1116.66 634.4 1090.86 658.6 1057.66 676.2C1024.46 693.8 985.658 702.6 941.258 702.6ZM1548.2 705C1514.2 705 1483 702 1454.6 696C1426.2 689.6 1400.4 681.2 1377.2 670.8C1354.4 660 1333.6 647.8 1314.8 634.2L1361.6 552.6C1394.4 575.8 1427.4 592.8 1460.6 603.6C1493.8 614 1525.6 619.2 1556 619.2C1569.2 619.2 1583 618 1597.4 615.6C1611.8 612.8 1623.8 608.2 1633.4 601.8C1643.4 595 1648.4 585.8 1648.4 574.2C1648.4 567.4 1646 561.8 1641.2 557.4C1636.8 552.6 1630.6 548.8 1622.6 546C1614.6 543.2 1605.2 541 1594.4 539.4C1584 537.4 1572.6 536 1560.2 535.2C1548.2 534 1536 532.8 1523.6 531.6C1495.6 528.8 1470.2 524.2 1447.4 517.8C1424.6 511.4 1405 503.2 1388.6 493.2C1372.6 482.8 1360.2 470.2 1351.4 455.4C1342.6 440.6 1338.2 423.6 1338.2 404.4C1338.2 382.8 1343.4 363.6 1353.8 346.8C1364.6 330 1379.6 316 1398.8 304.8C1418 293.2 1440 284.4 1464.8 278.4C1490 272.4 1517 269.4 1545.8 269.4C1575.8 269.4 1602.8 272.2 1626.8 277.8C1651.2 283 1672.6 290.2 1691 299.4C1709.8 308.6 1725.4 318.6 1737.8 329.4L1688.6 400.2C1676.2 391 1661.8 383.2 1645.4 376.8C1629.4 370 1612.4 364.8 1594.4 361.2C1576.8 357.6 1559.2 355.8 1541.6 355.8C1523.6 355.8 1507.4 357.4 1493 360.6C1479 363.4 1467.8 367.8 1459.4 373.8C1451.4 379.4 1447.4 386.8 1447.4 396C1447.4 404.4 1450.8 411.4 1457.6 417C1464.8 422.2 1474 426.4 1485.2 429.6C1496.4 432.4 1508.8 434.6 1522.4 436.2C1536 437.8 1549.2 439.4 1562 441C1586 443.4 1609.6 446.6 1632.8 450.6C1656 454.2 1676.8 460.2 1695.2 468.6C1714 476.6 1729 488.2 1740.2 503.4C1751.4 518.2 1757 538.4 1757 564C1757 593.6 1748 619 1730 640.2C1712 661 1687.2 677 1655.6 688.2C1624.4 699.4 1588.6 705 1548.2 705ZM1928.15 699V279H2304.95V366H2027.15V612H2310.95V699H1928.15ZM1982.15 526.8V444H2277.95V526.8H1982.15ZM2908 329.524L2701.23 14C2701.23 14 2572 132.386 2572 329.783C2572 527.179 2908 980 2908 980C2908 980 3244 527.179 3244 329.783C3244 132.386 3114.77 14 3114.77 14L2908 329.524Z" stroke="black" stroke-width="18"/>
<defs>
<linearGradient id="paint0_linear_404_51" x1="3214.79" y1="-20.1947" x2="2699.79" y2="812.641" gradientUnits="userSpaceOnUse">
<stop offset="0.3" stop-color="#B6DFDD"/>
<stop offset="0.95" stop-color="#D183C7"/>
</linearGradient>
</defs>
</svg>
