<svg width="2302" height="436" viewBox="0 0 2302 436" fill="none" xmlns="http://www.w3.org/2000/svg">
<path d="M0.200195 430V9.99989H91.4002L282.8 247H225.2L416.6 9.99989H507.8V430H408.8V293.2C408.8 260 409.6 228.8 411.2 199.6C412.8 170.4 416 140.6 420.8 110.2L430.4 143.8L273.8 328H234.2L75.8002 142.6L87.2002 110.2C92.0002 140.6 95.2002 170.4 96.8002 199.6C98.4002 228.8 99.2002 260 99.2002 293.2V430H0.200195Z" fill="black"/>
<path d="M932.258 433.6C887.458 433.6 848.458 424.8 815.258 407.2C782.058 389.6 756.258 365.4 737.858 334.6C719.458 303.8 710.258 268.6 710.258 229V9.99989H813.458V226.6C813.458 249.4 818.458 269.6 828.458 287.2C838.858 304.8 853.058 318.6 871.058 328.6C889.058 338.2 909.458 343 932.258 343C955.858 343 976.658 338.2 994.658 328.6C1013.06 318.6 1027.46 304.8 1037.86 287.2C1048.66 269.6 1054.06 249.4 1054.06 226.6V9.99989H1153.66V229C1153.66 268.6 1144.46 303.8 1126.06 334.6C1107.66 365.4 1081.86 389.6 1048.66 407.2C1015.46 424.8 976.658 433.6 932.258 433.6Z" fill="black"/>
<path d="M1539.2 436C1505.2 436 1474 433 1445.6 427C1417.2 420.6 1391.4 412.2 1368.2 401.8C1345.4 391 1324.6 378.8 1305.8 365.2L1352.6 283.6C1385.4 306.8 1418.4 323.8 1451.6 334.6C1484.8 345 1516.6 350.2 1547 350.2C1560.2 350.2 1574 349 1588.4 346.6C1602.8 343.8 1614.8 339.2 1624.4 332.8C1634.4 326 1639.4 316.8 1639.4 305.2C1639.4 298.4 1637 292.8 1632.2 288.4C1627.8 283.6 1621.6 279.8 1613.6 277C1605.6 274.2 1596.2 272 1585.4 270.4C1575 268.4 1563.6 267 1551.2 266.2C1539.2 265 1527 263.8 1514.6 262.6C1486.6 259.8 1461.2 255.2 1438.4 248.8C1415.6 242.4 1396 234.2 1379.6 224.2C1363.6 213.8 1351.2 201.2 1342.4 186.4C1333.6 171.6 1329.2 154.6 1329.2 135.4C1329.2 113.8 1334.4 94.5999 1344.8 77.7999C1355.6 60.9999 1370.6 46.9999 1389.8 35.7999C1409 24.1999 1431 15.3999 1455.8 9.39989C1481 3.3999 1508 0.399902 1536.8 0.399902C1566.8 0.399902 1593.8 3.1999 1617.8 8.7999C1642.2 13.9999 1663.6 21.1999 1682 30.3999C1700.8 39.5999 1716.4 49.5999 1728.8 60.3999L1679.6 131.2C1667.2 122 1652.8 114.2 1636.4 107.8C1620.4 101 1603.4 95.7999 1585.4 92.1999C1567.8 88.5999 1550.2 86.7999 1532.6 86.7999C1514.6 86.7999 1498.4 88.3999 1484 91.5999C1470 94.3999 1458.8 98.7999 1450.4 104.8C1442.4 110.4 1438.4 117.8 1438.4 127C1438.4 135.4 1441.8 142.4 1448.6 148C1455.8 153.2 1465 157.4 1476.2 160.6C1487.4 163.4 1499.8 165.6 1513.4 167.2C1527 168.8 1540.2 170.4 1553 172C1577 174.4 1600.6 177.6 1623.8 181.6C1647 185.2 1667.8 191.2 1686.2 199.6C1705 207.6 1720 219.2 1731.2 234.4C1742.4 249.2 1748 269.4 1748 295C1748 324.6 1739 350 1721 371.2C1703 392 1678.2 408 1646.6 419.2C1615.4 430.4 1579.6 436 1539.2 436Z" fill="black"/>
<path d="M1919.15 430V9.99989H2295.95V96.9999H2018.15V343H2301.95V430H1919.15ZM1973.15 257.8V175H2268.95V257.8H1973.15Z" fill="black"/>
</svg>
